<?xml version="1.0" encoding="utf-8"?>
<!-- Generator: Adobe Illustrator 24.1.3, SVG Export Plug-In . SVG Version: 6.00 Build 0)  -->
<svg version="1.1" id="Calque_1" xmlns="http://www.w3.org/2000/svg" xmlns:xlink="http://www.w3.org/1999/xlink" x="0px" y="0px"
	 viewBox="0 0 1024 1024" style="enable-background:new 0 0 1024 1024;" xml:space="preserve">
<style type="text/css">
	.st0{fill:url(#SVGID_1_);}
</style>
<g id="Calque_2_1_">
	<g id="Calque_1-2">
		<linearGradient id="SVGID_1_" gradientUnits="userSpaceOnUse" x1="780.6381" y1="878.5055" x2="305.8199" y2="56.0963">
			<stop  offset="0" style="stop-color:#2A9FFF"/>
			<stop  offset="1" style="stop-color:#7A60F5"/>
		</linearGradient>
		<path class="st0" d="M820.1,543.8c43.3-56.2,68.8-124.8,68.8-198.8C888.9,154.5,720.2,0,512,0S135.1,154.5,135.1,345
			c0,75.5,26.5,145.4,71.5,202.2c-36.7,30.3-41.9,84.7-11.5,121.3c4.3,5.2,9.2,9.8,14.5,13.9c-0.1,1.6,2.4,1.3,2.3,3
			C328.8,740,415.1,846.3,448.9,973.1v0.3l1.6,0.3c0,0.4,0.1,0.9,0.3,1.3l1.2,4.7v0.2c10.3,33.1,45.4,51.5,78.5,41.2
			c21.6-6.7,37.9-24.5,42.6-46.6l1.9-0.3c32.5-122.5,116.1-225.1,229.5-281.8l5.6-2.8l0.5-0.3c2.8-1.5,5.5-3.2,8.2-5
			c39.1-27.2,48.7-80.9,21.5-120c-5.6-8-12.4-15-20.3-20.6H820.1z M403.1,406.9c-83.3-0.1-152.7-63.6-160.2-146.5
			c84.2-37.5,183,0.3,220.5,84.6c6.3,14.2,10.6,29.1,12.8,44.5C453.5,401,428.5,407,403.1,406.9z M501.2,586.7
			C489,582,481,570.3,481,557.3c0-4,0.7-7.9,2.2-11.7C497.2,554.2,504.4,570.6,501.2,586.7L501.2,586.7z M522.7,586.7
			c-3.1-16.1,4.1-32.4,18-41c1.5,3.7,2.3,7.6,2.3,11.6c0,13-8,24.7-20.2,29.4H522.7z M620.8,406.9c-25.4,0-50.4-6-73-17.5
			c12.9-91.3,97.5-154.8,188.8-141.9c15.4,2.2,30.4,6.5,44.6,12.8C773.7,343.3,704.2,406.9,620.8,406.9L620.8,406.9z"/>
	</g>
</g>
</svg>
