<svg xmlns="http://www.w3.org/2000/svg" xmlns:xlink="http://www.w3.org/1999/xlink" viewBox="0 0 659 622.96"><defs><style>.cls-1{fill:#9cf;}.cls-2{fill:url(#Dégradé_sans_nom_23);}</style><linearGradient id="Dégradé_sans_nom_23" x1="465.33" y1="14.25" x2="159.84" y2="543.39" gradientUnits="userSpaceOnUse"><stop offset="0" stop-color="#a7fcff"/><stop offset="0.31" stop-color="#7a84ff"/><stop offset="1" stop-color="#6464ff"/></linearGradient></defs><g id="Calque_2" data-name="Calque 2"><g id="Calque_1-2" data-name="Calque 1"><path class="cls-1" d="M418,449.22a27.5,27.5,0,1,1,27.5-27.5A27.53,27.53,0,0,1,418,449.22Zm0-50a22.5,22.5,0,1,0,22.5,22.5A22.53,22.53,0,0,0,418,399.22Z"/><path class="cls-1" d="M554,395.22a27.5,27.5,0,1,1,27.5-27.5A27.53,27.53,0,0,1,554,395.22Zm0-50a22.5,22.5,0,1,0,22.5,22.5A22.53,22.53,0,0,0,554,345.22Z"/><path class="cls-1" d="M516.66,429.21a4.71,4.71,0,0,0,3.41,7.58v0a8.82,8.82,0,0,1-14.24,6.3,7.8,7.8,0,0,1-1-.91,4.71,4.71,0,0,0-2.34-7,4.36,4.36,0,0,0-1.62-.3,4.73,4.73,0,0,0-4.73,4.73,4.6,4.6,0,0,0,.5,2.09,9.45,9.45,0,0,1,9-16.34,9.45,9.45,0,0,1,18,3.26,4.64,4.64,0,0,0-3.24-1.3A4.74,4.74,0,0,0,516.66,429.21Z"/><path class="cls-1" d="M505.52,471.48a17.92,17.92,0,0,1-16.23-10.31,17.35,17.35,0,0,1-1.37-4.51,2.5,2.5,0,0,1,4.94-.78,12.71,12.71,0,0,0,23.86,3.67,4.08,4.08,0,0,1,5.31-1.88,12.63,12.63,0,0,0,9.71.29,12.85,12.85,0,0,0,7.82-15,12.22,12.22,0,0,0-1.26-3.11,2.5,2.5,0,1,1,4.34-2.5,17.47,17.47,0,0,1,1.76,4.37,17.9,17.9,0,0,1-10.89,20.93,17.61,17.61,0,0,1-12.74-.07,17.53,17.53,0,0,1-9.87,8.05A17.24,17.24,0,0,1,505.52,471.48Z"/><path class="cls-1" d="M403.5,469.72a1.5,1.5,0,0,1-.17-3l71-8a1.5,1.5,0,0,1,.34,3l-71,8Z"/><path class="cls-1" d="M422.5,512.72a1.46,1.46,0,0,1-1.23-.65,1.49,1.49,0,0,1,.38-2.08l58-40a1.5,1.5,0,0,1,1.7,2.47l-58,40A1.49,1.49,0,0,1,422.5,512.72Z"/><path class="cls-1" d="M403.5,495.72a1.5,1.5,0,0,1-.55-2.89l74-29a1.5,1.5,0,1,1,1.1,2.79l-74,29A1.52,1.52,0,0,1,403.5,495.72Z"/><path class="cls-1" d="M552.84,438.64a1.5,1.5,0,0,1-.17-3l71-8a1.5,1.5,0,1,1,.34,3l-71,8Z"/><path class="cls-1" d="M546.84,427.64a1.5,1.5,0,0,1-.85-2.74l58-40a1.5,1.5,0,1,1,1.7,2.47l-58,40A1.48,1.48,0,0,1,546.84,427.64Z"/><path class="cls-1" d="M549.84,433.64a1.5,1.5,0,0,1-.55-2.9l74-29a1.5,1.5,0,1,1,1.1,2.79l-74,29A1.35,1.35,0,0,1,549.84,433.64Z"/><path class="cls-2" d="M526.52,49.59C471.57,18.44,403.38,0,329.5,0,147.52,0,0,111.93,0,250c0,82,52.08,154.84,132.52,200.43A142.66,142.66,0,0,1,187,506.36a316.56,316.56,0,0,0,108.9,115.58,6.37,6.37,0,0,0,9.45-7.46A266.46,266.46,0,0,1,290,525v-.27a25,25,0,0,1,25.78-24.94q6.83.21,13.72.21,4.71,0,9.39-.1-.39-7.15-.39-14.4a263.18,263.18,0,0,1,5.12-51.81,117.66,117.66,0,0,1-64.06-83.76l0-.12a11,11,0,0,1,10.13-13c1.38-.09,2.76-.16,4.15-.21s2.78-.08,4.18-.08a117,117,0,0,1,57.48,15,18.29,18.29,0,0,0,21.42-2.68l.1-.1q7.28-6.78,15.06-13A260.8,260.8,0,0,1,503.81,283.6q11.81-2.37,24-3.65l1.62-.16a18.27,18.27,0,0,0,15.89-13.52A117.57,117.57,0,0,1,575,213.86a11.11,11.11,0,0,1,16.72.95q3.28,4.2,6.18,8.71a116.8,116.8,0,0,1,18.59,62.12c0,.45,0,.9,0,1.36a117.24,117.24,0,0,1-4,30.57,259.35,259.35,0,0,1,25.77,19.95A200,200,0,0,0,657,277.38,191.21,191.21,0,0,0,659,250C659,168,606.94,95.18,526.52,49.59ZM209.4,253.41a29.51,29.51,0,1,1,27-27A29.52,29.52,0,0,1,209.4,253.41Zm110.5,0a29.51,29.51,0,1,1,27-27A29.52,29.52,0,0,1,319.9,253.41Zm110.5,0a29.51,29.51,0,1,1,27-27A29.52,29.52,0,0,1,430.4,253.41Z"/></g></g></svg>